<svg  xmlns="http://www.w3.org/2000/svg" xmlns:xlink="http://www.w3.org/1999/xlink" width="968" height="300" viewBox="0 0 992 324"><path transform="translate(0 100)" d="M40.6,-89.5L43,-89.5Q46,-85.9 46.9,-85.9Q48.4,-83.6 48.4,-81.6L48.4,-78.9L49.2,-77.7L49.2,-75.4L54.3,-75.4Q55.2,-75.4 55.9,-75.8Q56.5,-75.4 57.4,-75.4L59.8,-75.4Q69.5,-74.3 69.5,-71.9Q70.6,-69.4 72.3,-68.4Q74,-67.6 74.2,-66.8Q72.6,-60.5 67.6,-57.4L64.5,-55.5L64.5,-53.5Q62.3,-50.3 57.4,-45.3Q56.2,-44 49.6,-40.2L49.2,-37.5L49.2,-30.5L48.4,-29.3L48.4,-13.3Q48.4,-8.8 48,0.4Q47.3,0.5 47.3,1.2L47.3,5.1L48,6.2L48,11.7Q47.3,12.7 47.3,13.3Q47.3,14.6 46.9,24.6L46.1,25L41,25Q40.2,25 40.2,24.2Q40.2,19 39.8,14.8Q40.2,6.6 40.2,-2.7L40.2,-5.5L41,-6.6L41,-14.1L40.2,-15.2L40.2,-16L41,-17.2L41,-21.9L40.2,-23L40.2,-23.8L41,-25L41,-35.5L38.3,-35.5Q36.2,-35.5 34.8,-34.4Q31.1,-35.5 30.1,-37.9L30.1,-38.3Q30.1,-40.2 34.8,-41.8Q35.1,-41.8 41,-44.9L41,-50Q41,-51.3 41.4,-52L41,-54.3L41,-64.5L39.5,-64.5Q30.1,-60.9 25.8,-60.9L23,-60.9L21.9,-60.2L20.7,-60.9L19.5,-60.2L15.6,-60.2L15.6,-54.3L16.4,-53.1L16.4,-52.3L15.6,-51.2L15.6,-50.8L16.4,-49.6L16.4,-48.8Q15.6,-47.9 15.6,-47.3Q15.6,-45.5 15.2,-30.1L13.3,-28.5L11.7,-28.5Q7.8,-29.8 7.8,-33.2Q7.4,-33.2 7.4,-33.6L7.4,-39.5L8.2,-40.6L8.2,-44.5L7.4,-45.7L7.4,-46.9L8.2,-48Q7.4,-48 7.4,-49.2Q7.4,-51.1 7,-61.3Q6.3,-61.3 6.3,-62.1Q5.9,-72.6 5.9,-75L6.6,-75.4L8.6,-75.4L11.3,-73.4Q12.5,-72.2 13.3,-69.5Q14.4,-68.4 15.6,-68.4L15.6,-68Q28.5,-70.7 28.9,-70.7Q33.5,-72.8 39.5,-73.4L41,-76.6L41,-77Q39.8,-78.4 39.8,-82.4L39.8,-84L39.1,-85.2L39.1,-87.5Q40.1,-89.5 40.6,-89.5ZM52.7,-68L49.6,-66Q49.6,-65.6 50,-65.6Q49.2,-61.3 49.2,-57.8Q49.2,-53.7 50.4,-50.8L51.6,-50.8Q51.6,-52.4 54.3,-53.9L63.7,-64.8Q64.8,-66.1 64.8,-66.8Q64.8,-68.4 60.9,-68.4Q55.1,-68 52.7,-68Z"></path><path transform="translate(80 100)" d="M30.1,-86.5Q33.9,-85 34,-83.4L36.7,-83.4Q42.6,-79.4 42.6,-74.8L42.6,-72.9Q42.6,-70.5 39.1,-69.3L37.5,-69.3Q34.1,-70.9 34,-71.7Q34,-72.9 35.2,-74.4L35.2,-75.6Q33.8,-79 31.6,-80.3Q31.6,-81.1 29.3,-83.4L29.3,-85.7Q29.4,-86.5 30.1,-86.5ZM53.9,-68.2Q56.2,-68.2 58.6,-62.3L58.6,-60.7Q57.8,-58.4 55.1,-57.2Q53,-54.9 51.6,-54.9Q52,-49.5 52,-48.2Q51.6,-37.7 51.6,-35.7Q50.8,-35.7 48,-21.7Q44.9,-17 44.9,-13.1Q45.7,-13.1 50,-6.8Q50.7,-6.8 55.5,-1.4L59.8,2.5Q72.3,11 79.3,11.9Q81.5,13.6 91.8,15.8Q91.8,16.2 92.2,16.2L94.5,16.2Q100.6,17.3 103.1,20.5Q102.6,21.1 98.4,21.7Q98.4,22.1 98,22.1L92.6,22.1Q91.8,21.3 87.1,20.9L86.3,21.3Q81.1,21.3 66,16.6Q56.3,12 46.9,3.7Q44.2,0.2 43.8,0.2L39.1,-5.7L37.9,-5.7Q28.1,6.1 24.2,6.1L19.5,8L16.4,8L15.2,7.2Q15.2,8 14.5,8L10.5,8L5.9,5.3Q5.9,4.5 10.2,4.1Q17,0.6 17.6,0.6Q25.5,-5.9 29.3,-11.9Q30.2,-12 30.9,-15Q30.9,-16.1 22.3,-25.2Q22.3,-25.4 14.1,-33.4Q14.1,-33.8 10.5,-37.7L10.5,-38.5Q10.5,-39.1 11.7,-39.6Q14.1,-38.3 14.1,-37.3L16,-37.3Q16.7,-36.6 20.7,-36.1Q23.2,-35 30.9,-27.5Q34.7,-23.2 36.3,-23.2Q41,-34 42.6,-43.6Q42.6,-44.1 43.4,-45.1L43.4,-49.4L43.8,-51.4Q43,-51.8 42.6,-51.8Q30.6,-50.2 29.7,-49.4L28.9,-49.4Q28.1,-49.4 28.1,-50.6L25.4,-50.2L23,-50.2Q17.1,-50.9 11.7,-56.1Q11.7,-57.6 9.4,-59.2L9.4,-61.5Q9.5,-62.3 10.2,-62.3Q15.7,-59.6 20.7,-59.6Q25.6,-60 30.5,-60Q30.9,-61.1 32.8,-61.1L35.9,-61.1Q37.1,-61.9 46.5,-63.9L53.9,-68.2ZM21.5,1L21.5,2.1L22.3,2.1L22.3,1L21.5,1Z"></path><path transform="translate(189 100)" d="M22.3,-82.8L23,-82.8Q31.6,-79.3 35.9,-79.3Q40,-79.7 44.9,-79.7L45.3,-79.7L46.5,-80.5L60.9,-80.5L62.1,-81.3L66.8,-81.3L66.8,-80.5L67.6,-80.5L68.8,-81.3L69.5,-81.3L70.7,-80.5L74.2,-80.5Q81.2,-78.3 82.8,-74.6Q87.4,-73.4 90.2,-69.1Q90.2,-68.6 93.4,-55.9L93.8,-55.9L93.8,-53.1Q92.9,-51.2 91.8,-51.2L92.2,-46.5L92.2,-44.5Q91.4,-44.5 89.8,-30.9L89.8,-30.5Q88.7,-28.9 88.7,-25.4Q90.1,-24.6 91.8,-20.7Q92.3,-20.7 93.4,-18.4L93.4,-18Q92.2,-16.9 91.8,-14.8Q90.3,-14.8 89.5,-14.1Q87.9,-14.8 86.7,-14.8Q85.9,-14.5 85.5,-14.5Q83.6,-0.1 81.6,2.3L81.6,4.3Q79,18.4 77.7,18.4L74.6,18.4Q68.1,14.6 64.8,11.3Q64.8,10.2 62.5,9Q62.4,7.2 54.3,1.2Q54.3,0.7 49.6,-3.1L48.4,-4.7Q48.5,-5.5 49.2,-5.5L50,-5.5Q61,-0.1 68,3.9Q68.8,3.9 68.8,5.1L69.5,5.1L72.3,5.5Q74.2,1.2 75.4,-7.4Q76.5,-10.1 77.7,-19.5Q78.1,-19.5 78.1,-19.9L78.1,-24.2Q77.3,-24.2 69.1,-33.2L67.6,-34.4L66.8,-34.4Q63.4,-33.2 60.5,-31.3Q54.1,-28.9 53.9,-28.9L53.5,-29.7Q58.8,-35.5 60.5,-36.3Q60.5,-37 61.7,-38.3L61.7,-40.2Q60,-40.2 55.5,-45.3Q53.4,-45.3 51.6,-48.8L50.8,-49.2L50,-49.2Q50,-46.9 46.9,-43.8L46.9,-42.2L48.8,-41.8L49.6,-41.8L54.3,-42.2L54.7,-41.4Q52.1,-34.8 51.2,-34.8L47.3,-34.8Q45.2,-34.8 43.8,-35.9L42.6,-35.9Q40.8,-35.9 38.7,-30.5Q37.3,-30.5 33.2,-24.2L31.3,-24.2Q31.3,-23.1 25.8,-21.1L23.8,-21.1Q21.5,-22.2 21.5,-22.7Q30.3,-28.7 34,-39.5L35.5,-41.8L35.9,-41.8L35.9,-42.6Q32.7,-48 29.3,-50.8Q28,-52.4 27,-56.3L27,-57.4Q27,-58.2 29.3,-58.6Q29.3,-57.9 32,-56.3Q37.9,-51.2 37.9,-50.4L39.1,-50.4Q39.1,-51.4 41,-55.9Q41.4,-56.3 41.4,-58.6L41.4,-61.3Q41.4,-61.9 43,-62.9L44.1,-62.9Q50.8,-57 50.8,-52.3L53.1,-52.3Q57.6,-50.7 66,-45.3L67.6,-45.3Q67.6,-46.6 70.7,-53.9L70.7,-58.6Q70.7,-59 72.7,-60.5Q74.6,-60.5 76.6,-57.8Q79.4,-55.8 80.9,-53.1L81.3,-53.1Q81.3,-55 82,-55.9L82,-63.3Q81.3,-64.2 80.5,-69.9Q80.1,-69.9 80.1,-71.1L75.8,-71.1L74.6,-71.9L71.9,-71.9L70.7,-71.1L67.2,-71.1Q67.2,-69.9 66.4,-69.9Q66.4,-70.7 65.6,-70.7Q65.6,-69.9 64.8,-69.9L62.5,-69.9Q58.5,-69.9 57,-68.8L56.3,-68.8Q55.1,-68.8 55.1,-69.1L53.1,-68.8L47.3,-68.8L46.1,-68L45.3,-68L44.1,-68.8L43.4,-68.8Q33.7,-68.8 29.3,-71.1Q28.4,-71.4 23.8,-74.6Q22.3,-74.6 20.3,-79.3L20.3,-80.1Q21.7,-82.8 22.3,-82.8ZM8.2,-73.8Q12,-70.8 15.6,-69.5Q18.8,-66.3 19.5,-64.5Q20.3,-64.4 20.3,-63.7L20.3,-55.5Q20.3,-55.1 20.7,-55.1L20.3,-54.3Q21.5,-52.6 21.5,-51.2Q20.7,-48.6 20.7,-47.7L20.7,-42.6L19.9,-41.4L19.9,-39.8Q19.9,-34.5 17.6,-30.9Q16,-26.8 15.6,-22.7Q14.4,-22.7 13.3,-14.5Q12.2,-11 10.9,-10.5L10.2,-10.5Q7.4,-10.5 5.9,-14.1L5.9,-16.8Q7.7,-21 9.8,-30.9Q10.2,-30.9 10.2,-31.6Q10.2,-37.3 11.3,-39.8Q11.3,-48.1 10.5,-62.5L9.8,-62.5L9.8,-63.3Q9.8,-66.4 5.9,-69.9L5.9,-72.3Q5.9,-72.8 8.2,-73.8ZM74.6,-39.5Q79.3,-35.8 79.3,-34.8L80.5,-34.8L80.5,-38.7Q80.5,-42.7 81.6,-44.1L81.6,-46.1L80.9,-46.1Q78,-42.9 76.2,-42.2Q74.6,-40.8 74.6,-39.5Z"></path><path transform="translate(289 100)" d="M23.4,-88.1Q28.1,-85.7 34,-85Q34,-84.6 34.4,-84.6L36.7,-84.6Q42.9,-84.6 44.9,-79.1Q44.8,-77.8 41.4,-76.4L33.6,-76.4Q27.7,-78 23.8,-83.8Q22.3,-86.8 22.3,-87.7Q23,-88.1 23.4,-88.1ZM57.4,-76L61.3,-76L68.4,-73.6Q69.9,-73.6 71.1,-67.4Q71.7,-67.4 72.7,-65.8L72.7,-64.3Q68.3,-56.1 62.5,-56.1Q55.5,-51.4 50.8,-51.4L50.8,-50.2Q52.3,-50.2 53.9,-47.5Q53.9,-45.3 54.3,-40Q54.3,-34.1 50.4,-26.4Q50.4,-24 49.6,-23.2L49.6,-21.3L51.6,-21.3Q54.9,-23.2 60.5,-25.2Q69.4,-28.6 69.9,-29.5L72.3,-29.5Q73,-29.4 73,-28.7L73,-28.3L68,-22.9Q64.3,-17.4 59.8,-16.6L59.8,-15Q59.8,-12.8 65.6,-10Q66.7,-7.8 70.3,-5.3Q70.3,-4.3 71.5,-2.5L71.5,2.5Q67,13.1 64.5,13.1Q64.5,14.6 61.3,17.8Q57.9,23.6 54.3,23.6L52.3,23.6Q51,21.9 49.6,21.7Q49.6,20.4 44.5,14.6L44.5,12.7Q42.9,12.7 41,6.8L41,5.7Q39.8,5.7 38.7,4.1Q38.8,3.3 39.5,3.3Q46.5,9.8 51.2,12.7L51.6,12.7Q53.5,11.6 55.5,8.8L60.9,0.6L60.9,-3.3Q60.9,-5.3 49.2,-7.6Q49.2,-8.4 46.9,-8.4Q38,-5.7 34.8,-3.7L32.8,-3.7Q32.8,-2.5 25.4,-0.6L15.2,1.4Q10.2,1 10.2,-2.5Q9.5,-2.5 9.4,-4.5Q10.4,-4.5 10.9,-7.2Q12.7,-7.2 18,-9.6Q23.2,-11.1 25.4,-12.7Q25.5,-11.9 26.2,-11.9Q26.2,-12.5 36.7,-15.8Q41.8,-17 41.8,-22.1Q43.6,-30.8 46.9,-38.5Q47.2,-41.3 48,-42.4L48,-44.7Q35,-47.3 32.8,-49Q29.3,-49.5 29.3,-52.5Q29.3,-53.1 30.5,-53.7L34.8,-53.7L35.9,-52.9L43,-52.9Q45,-52.9 46.5,-51.8L46.9,-51.8Q54.4,-55.8 59.4,-59.2Q61.4,-60.8 66,-66.2L66,-67L65.6,-68.9L64.8,-68.9Q63.5,-68.2 53.9,-66.2Q49.4,-64.6 39.8,-62.7Q39.8,-62.3 39.5,-62.3L31.3,-62.3Q25.8,-64.9 23.4,-68.2L23.4,-68.6Q25.4,-70.9 28.9,-70.9Q28.9,-71.3 29.3,-71.3L30.9,-71.3Q34.9,-71.3 47.7,-74.4Q47.7,-75.1 54.3,-75.2L56.3,-75.2L57.4,-76ZM6.6,-64.6L7.4,-64.6Q9.8,-64.6 16.4,-58Q18.2,-50.3 18.8,-49.8L18.8,-47.1Q18.8,-44.2 19.1,-42.8Q18.8,-40.2 18.8,-37.7L18.8,-32.6L18,-31.4Q18,-22.5 16,-22.5Q15.7,-22.5 14.8,-23.6L12.9,-23.2Q11.7,-24.7 11.7,-26L11.7,-28.7Q11.7,-29.1 11.3,-29.1L11.7,-29.9L11.7,-39.6L10.9,-40.8L10.9,-41.6L11.7,-42.8L11.7,-47.9Q10.9,-48.8 10.9,-49.4Q10.9,-58.2 7,-62.3Q7,-62.9 5.9,-63.9Q6,-64.6 6.6,-64.6ZM48.4,-51.8L48.4,-51.4L49.6,-51.4L49.6,-51.8L48.4,-51.8Z"></path><path transform="translate(368 100)" d="M27.3,-84.4L29.3,-84.4Q30.6,-84.4 32.8,-82.4Q37.5,-81.6 41,-77Q41.8,-75.4 41.8,-74.2Q40.6,-71.5 38.3,-71.5Q36.5,-71.5 27.3,-79.3Q27.3,-80.8 26.2,-82.4L26.2,-83.2Q26.2,-83.8 27.3,-84.4ZM82.8,-80.9L84,-80.9Q87.4,-78.4 88.7,-76.2Q90.8,-76.2 92.6,-68.4L93.4,-68L93.8,-68Q98.2,-68 101.6,-73L102,-73L102.7,-72.7Q102.7,-73 103.1,-73Q107.4,-69.6 107.4,-69.1L107.4,-66.8Q105.5,-63.8 103.1,-62.9Q103.1,-63.3 102.7,-63.3Q98.4,-60.3 93.8,-59Q93.5,-54.7 92.6,-54.7L93,-50L93,-46.5L93.8,-45.3L93.8,-44.5Q93.8,-43.8 93,-43.8Q93.8,-32.5 93.8,-26.2Q94.5,-26.1 94.5,-25.4L94.5,-24.6Q94.5,-23.8 93.8,-23.8Q94.5,-14.3 94.5,2Q93.8,2 93.4,6.6Q93,6.6 93,7L93,10.5Q91.4,15.4 91.4,16.8Q91.4,18.8 85.5,19.5Q85.5,19.9 85.2,19.9L84.4,19.9Q83.6,19.9 83.6,19.1L83.6,18.7Q86.3,9.8 86.3,2L86.3,-12.9L86.7,-14.8Q85.5,-14.8 85.2,-31.6Q84.4,-31.6 84.4,-32.4L84.4,-32.8Q84.5,-33.6 85.2,-33.6L84.8,-36.3L84.8,-40.2L84,-41.4L84,-42.2L84.8,-43.4Q84.5,-46.8 83.6,-47.7L83.6,-50Q83.6,-54.3 82.4,-54.3Q80,-52.2 73.8,-51.6Q73.8,-51.2 73.4,-51.2L72.7,-51.2L71.9,-51.6L71.9,-51.2Q71.1,-51.6 70.7,-51.6Q70.3,-51.6 70.3,-51.2Q64.8,-51.4 61.3,-53.5Q59,-53.5 54.7,-57.4L52.3,-60.2L51.6,-61.3L51.6,-64.5Q51.6,-65 52.7,-65.6L53.9,-65.6Q58.2,-61.3 62.1,-61.3Q62.1,-60.9 62.5,-60.9Q74.4,-60.9 79.3,-63.7L81.6,-63.7Q81.6,-64.8 82.8,-64.8Q82.4,-68.8 82.4,-70.7L82.4,-72.7Q82.4,-73.4 81.6,-73.4L82,-77.3L82,-80.1Q82.1,-80.9 82.8,-80.9ZM27,-55.1Q39.1,-52.1 39.1,-48.4Q40.6,-48.4 40.6,-40.2L40.2,-39.5Q40.6,-38.8 40.6,-37.9L40.6,-36.7Q39.8,-34 39.8,-33.6L39.8,-33.2L41.8,-32.8L50.8,-42.6L55.9,-47.3L56.3,-47.3L56.3,-46.1Q55.5,-45.2 54.7,-39.8Q53.2,-39.8 51.2,-32.4Q50.3,-32.4 48,-25.8Q47.2,-25.8 45.3,-21.9Q44.8,-21.9 39.1,-15.6L37.1,-14.5L34.8,-14.5Q29.3,-16.8 29.3,-23L29.3,-24.6L30.1,-25.8L30.1,-26.6Q30.1,-32.4 32,-35.2L32,-46.9Q19.3,-43.8 18.8,-43.8L12.1,-43.8Q11.2,-43.8 10.5,-43.4Q6.6,-44 6.6,-45.3Q7,-45.3 7,-45.7Q5.9,-45.7 5.9,-46.5L5.9,-51.6Q5.9,-52.1 7,-52.7L7.4,-52.7L8.6,-52Q8.7,-52.7 9.4,-52.7L10.9,-52.7L11.7,-52.3Q11.7,-53 18.4,-53.9Q18.4,-54.3 18.8,-54.3L20.3,-54.3L22.3,-53.9Q22.3,-55.1 27,-55.1Z"></path><path transform="translate(481 100)" d="M87.9,-86.3L88.3,-86.3Q98,-84 98,-76.6Q98.4,-74.9 98.4,-70.7L98.4,-68.8L99.2,-67.6L99.2,-66L98.4,-64.8L98.4,-56.3L98,-53.9Q98.4,-53.2 98.4,-52.3Q98,-47.7 98,-45.3Q97.3,-45.3 97.3,-44.1Q96.9,-37.3 96.9,-35.9Q96.1,-35.8 96.1,-35.2L96.1,-34.8Q96.1,-28.8 93.8,-24.6L93.8,-20.3Q92.6,-12 91.4,-10.9L91.4,-9.4Q91.4,-5.4 90.2,-3.9L90.2,-0.4Q90.2,0.4 89.1,0.4L89.1,4.7Q84.4,21.9 78.5,21.9Q78.1,21.1 78.1,20.7Q79.3,19.7 82,6.6Q83.2,6.6 83.2,1.6L83.2,-0Q84.4,-1.5 84.4,-5.5L84.4,-7.8Q85.5,-9.1 85.5,-14.5L85.5,-16Q86.7,-17.2 86.7,-23.4L86.7,-26.6Q86.8,-27.3 87.5,-27.3Q87.9,-35.7 87.9,-39.8L87.9,-45.3L88.7,-46.5L88.7,-50.4Q88.7,-50.8 89.1,-50.8Q89.1,-51.2 88.7,-51.2Q89.1,-55.1 89.1,-57L89.1,-57.4Q89.1,-61.1 88.7,-64.8Q89.1,-67 89.1,-68.4L88.7,-71.9L89.1,-72.7Q88.6,-75.3 87.9,-76.2L87.9,-80.5Q85.2,-80.5 85.2,-81.6L85.2,-84.8Q85.8,-86.3 87.9,-86.3ZM38.3,-80.5L38.7,-80.5Q48,-79 48,-77L50,-77L59,-73.4Q61.2,-73.4 68.8,-73L69.9,-71.1L69.9,-70.7Q68.6,-68.6 64.5,-66.4L53.5,-66.4Q52.3,-67.9 48,-68.8L48,-67.6L48.8,-66.4L48.8,-63.3Q47.9,-60.2 45.7,-59Q45.7,-57.8 41,-55.5Q40.4,-55.5 39.5,-53.9L39.5,-46.9Q39.5,-39.5 41,-39.5L41.8,-39.5Q41.8,-40.2 46.5,-44.5L48.8,-47.3Q52.9,-52.3 55.1,-52.3L55.9,-52.3Q59,-52.3 59,-48Q59,-44.1 53.9,-40.2Q53.9,-39.4 51.6,-37.9Q50.1,-34.8 48.8,-34.8Q48.1,-34.8 46.5,-32L46.9,-29.7Q43.4,-20.1 43.4,-18Q41.4,-11.3 39.8,-11.3L37.9,-11.3Q33.2,-13.6 33.2,-17.6Q32.8,-17.6 32.8,-18L32.8,-21.9L31.6,-21.9Q30.6,-21.9 24.6,-19.5Q18.2,-19.5 16.8,-18.4L12.5,-18.4Q12,-18.4 10.5,-20.3Q12.5,-21.4 16.4,-22.3Q16.8,-22.8 21.9,-24.6Q31.6,-30.4 31.6,-32.4Q31.3,-37.9 31.3,-41.8L31.3,-43.8L30.5,-44.9L30.5,-47.3Q30.5,-51.6 24.6,-51.6Q24.6,-52.2 18,-52.3L9,-55.5Q8.1,-56.5 5.9,-61.3L5.9,-65.2Q7.5,-69.1 8.6,-69.5Q9.4,-69.5 9.4,-68.4Q9.4,-68 9,-67.2Q9,-63 15.6,-61.7Q19.1,-61.7 19.9,-60.5L27.3,-60.5L29.3,-61.7L28.9,-66.4L28.9,-69.1Q28.2,-70.3 27.3,-75.8Q27,-75.8 27,-76.2L27,-78.5Q27.1,-79.3 27.7,-79.3L28.1,-79.3Q35.7,-77.1 36.3,-69.5Q37.5,-69.5 37.5,-65.2L37.5,-63.7L37.9,-63.7Q42.5,-63.7 44.5,-68Q44.5,-69.7 38.3,-75.8Q38.3,-76.4 37.5,-77.3L37.5,-79.7Q37.6,-80.5 38.3,-80.5ZM64.1,-65.2L65.2,-65.2Q70.7,-61.7 70.7,-57.4Q71.8,-53.6 72.7,-52Q72.7,-46.8 70.3,-41L70.3,-34.4Q70.3,-31.8 67.2,-30.1L66.4,-30.1Q62.5,-31.5 62.5,-34Q62.1,-34 62.1,-34.4L62.1,-39.5L62.9,-40.6Q63.3,-56 63.3,-63.7L63.3,-64.5Q63.4,-65.2 64.1,-65.2ZM45.3,-32Q45.3,-31.2 43.4,-30.9Q42.5,-29.2 39.8,-28.5Q39.5,-26.4 39.5,-25L39.5,-23.8L40.2,-23.8Q42.5,-25.8 45.7,-31.6L45.7,-32L45.3,-32ZM86.3,-9Q85.1,1 84.4,2L84.4,5.5L84.8,5.5Q85.5,5.5 85.5,4.7L85.5,-2.7Q86.7,-2.7 86.7,-5.5L86.7,-9L86.3,-9ZM83.2,10.2Q82.9,13 82,14.1L82,14.5L83.2,14.5Q83.2,13 84,12.1L84,10.2L83.2,10.2Z"></path><path transform="translate(0 200)" d="M7.8,-72.7L8.6,-72.7Q12,-70.3 13.7,-70.3Q14.2,-69.8 17.2,-68.4L19.9,-68.4Q25.3,-68.4 26.6,-67.2L30.9,-67.2Q44.7,-67.2 50.8,-63.3L50.8,-60.9L48.8,-58.6L39.1,-58.6L37.9,-57.8L37.1,-57.8Q36.1,-58.6 35.5,-58.6Q26.5,-59 26.2,-59Q26.2,-59.8 25.4,-59.8L24.2,-59.8Q19.2,-59.8 11.7,-63.3Q11.7,-64 7,-66Q7,-66.3 5.9,-69.5Q5.9,-71.7 7.8,-72.7ZM29.3,-56.3L30.9,-56.3Q35.9,-53.4 35.9,-50.4L37.5,-46.5L37.5,-44.1Q36.8,-43.3 35.9,-37.5Q35.5,-37.5 35.5,-37.1L35.5,-34.8Q35.5,-32.7 34.4,-31.3L34.4,-29.7Q33.3,-20.3 32.4,-20.3L32,-20.3L32,-18.4Q32,-16.3 30.9,-14.8L30.9,-10.2Q30.9,-8.1 29.7,-6.6L29.7,-5.5Q28.5,4.8 26.2,8.2L23,8.2Q22.7,8.2 22.7,7.8L21.9,8.2Q20.9,8.2 18,3.5L18,0.4Q19.9,0.4 23.4,-24.6Q23.8,-24.6 23.8,-28.1L23.8,-31.3Q25,-32.7 25,-34.8L25,-39.1Q26.2,-40.3 26.2,-45.7L26.2,-47.7Q27,-48.4 27.7,-54.3Q28.7,-56.3 29.3,-56.3Z"></path><path transform="translate(57 200)" d="M19.1,-70.1L21.1,-70.1Q24.6,-67.4 24.6,-64.3Q24.6,-57.5 19.9,-35Q18.5,-31.3 18.4,-27.1L27,-34.2Q31.5,-36.5 32.4,-36.5Q36.1,-35.9 39.5,-32.2Q41,-29.2 41,-28.3L41,-25.2Q42.2,-24 42.2,-16.6L42.2,2.1L43,3.3L43,3.7Q43,4.2 41,5.7L38.3,5.7Q34.4,1.7 34.4,-2.5Q34,-2.5 34,-2.9L34,-5.3Q34,-15.5 33.2,-18.2L34,-22.5Q33.6,-27.9 32.4,-27.9L31.6,-27.9Q31.6,-27 25.8,-22.1Q25.8,-21.5 22.3,-18.9Q15,-10.2 14.8,-7.2L14.1,-7.2L14.1,-5.7Q12.8,-1.4 11.7,-1.4L10.2,-1.4Q6.7,-2.6 5.9,-5.3L5.9,-11.1Q6.6,-12 11.3,-34.6Q13.7,-43.9 15.2,-55.3L15.2,-56.4Q16.4,-57.7 16.4,-63.1L16.4,-63.9L18.4,-69.7L19.1,-70.1Z"></path><path transform="translate(106 200)" d="M23.4,-46.9L27.7,-46.9Q34.5,-44.9 34.8,-44.9Q41.2,-42.5 44.9,-37.5Q46.5,-37.5 47.3,-34Q50,-32 50,-31.6Q50.4,-31 50.4,-30.1Q50.4,-25.5 44.5,-20.7Q43.9,-20.7 41,-18.8Q33.7,-17.1 32.8,-16.4L28.5,-16.4Q27.5,-17.2 27,-17.2Q20.5,-17.2 17.6,-19.5Q14.8,-19.5 14.8,-21.9L13.7,-21.9Q13.7,-13 19.5,-10.5Q21.1,-10.2 22.3,-9.4L34.4,-9.4L35.5,-10.2L35.9,-10.2Q38.1,-10.2 41.4,-10.5Q43.8,-9.8 44.1,-8.6L44.1,-7.4Q42.9,-4.7 39.8,-2.3L34.4,-0L26.6,-0Q25.9,-0.7 18.8,-2Q18.1,-2.8 14.1,-5.1L9,-11.3Q9,-12.2 7,-15.2Q7,-16.6 5.9,-18.4L5.9,-24.6Q7.1,-28.4 9.8,-34Q11.7,-39.2 18,-44.5Q22.6,-46.9 23.4,-46.9ZM15.2,-31.3L15.2,-28.9Q19.8,-26.2 22.3,-26.2Q22.3,-25.8 22.7,-25.8L25,-25.8Q26.2,-26.5 32,-27.3Q41,-29.5 41,-33.6L41,-34.4Q41,-38.7 32,-41Q32,-42.2 28.1,-42.2Q21.9,-42.2 17.2,-34.8L15.2,-31.3Z"></path><path transform="translate(162 200)" d=""></path><path transform="translate(179 200)" d="M24.2,-76.6L25,-76.6L26.2,-75.8L32,-75.8Q44.5,-73.8 44.5,-71.1Q47.6,-71.1 50,-65.2Q50.5,-65.2 51.6,-62.9L51.6,-61.3Q50.8,-60.5 50,-55.9Q49.7,-47.9 37.9,-35.2Q32.6,-26.2 23.8,-26.2L23.8,-26.6L23,-26.6Q21.4,-26.6 18.4,-7.8L18,-7L18,-4.7Q16.7,1.8 15.6,3.5L15.6,5.5Q15.6,10.1 13.3,12.1L9.4,12.1Q5.9,9.5 5.9,7.4Q5.9,3.8 9.8,-16L9.8,-17.6Q10.5,-18.4 11.3,-24.2L12.1,-24.2L12.1,-28.1Q12.8,-29.5 14.8,-39.5Q15.6,-39.5 15.6,-45.3L15.6,-45.7Q16.4,-46.4 17.2,-52.3Q17.8,-52.3 18.8,-53.5L19.9,-53.5Q23.2,-53.5 25,-47.3L25,-42.2Q25,-40.1 23.8,-38.7L23.8,-33.6L24.6,-33.6Q31.2,-38.4 34,-43.4Q38.1,-48.8 38.7,-48.8Q39.7,-52.3 41.4,-52.3L41.4,-54.7Q43.8,-58.1 43.8,-61.7L43.8,-62.5Q43.8,-66.5 40.2,-66.8Q40.2,-67.5 37.5,-67.6L24.6,-67.6Q18.8,-67.6 13.3,-66Q9.7,-67.4 8.6,-70.7L8.6,-72.3Q9.3,-74.6 11.3,-74.6Q13.9,-75.8 16.4,-75.8L23,-75.8L24.2,-76.6Z"></path><path transform="translate(236 200)" d="M28.9,-55.4Q28.9,-54.1 33.2,-51.5Q35.3,-48.7 47.3,-44.8L49.6,-44.8Q52.7,-44.8 58.6,-40.5L58.6,-39.7Q58.6,-37.6 55.9,-35.4L50.8,-35.4Q49.7,-36.1 41,-37.8L35.9,-40.5Q31.8,-42.7 28.9,-45.6L28.1,-45.6Q28.1,-43.5 25.8,-37.4L25.8,-35.1L21.5,-14Q21.1,-14 21.1,-13.6L21.1,-11.6Q21.1,-8.2 17.6,0.1L17.6,5.6Q17.6,6 13.3,9.1L11.3,9.1Q6.6,6.2 6.6,-0.3L6.6,-3L5.9,-4.2L5.9,-5L6.6,-6.2L6.6,-12Q6.6,-12.9 6.3,-13.6Q7,-15 7,-16.7L7,-28Q7,-31.3 6.6,-38.6L7.4,-39L9,-39Q14.1,-35.6 14.1,-28.8L14.1,-26.5L14.8,-25.3L14.8,-22.2L16,-22.2Q19.5,-34.5 23.8,-53.4Q24.4,-55.4 28.9,-55.4Z"></path><path transform="translate(300 200)" d="M26.2,-54.7Q34.5,-53 36.7,-51.2Q38.3,-48.5 39.5,-48.4Q44.1,-39.5 44.1,-35.2Q44.5,-35.2 44.5,-34.8L44.5,-29.3L43.8,-28.1L43.8,-24.6Q36.3,0.8 21.5,0.8Q15.4,0.8 10.9,-6.6Q8.8,-6.6 6.6,-17.2Q6.3,-17.2 6.3,-17.6L6.3,-19.1Q6.3,-23 5.9,-30.9L6.3,-30.9L5.9,-31.6L5.9,-32.4Q5.9,-33.6 6.3,-33.6L5.9,-35.5Q6.6,-45.3 10.5,-45.3Q12.3,-45.3 13.3,-46.9Q18.6,-52.6 26.2,-54.7ZM13.3,-38.3Q12.9,-31.3 12.9,-28.9Q12.9,-25.6 13.3,-15.6Q13.8,-15.1 16,-9.4Q18,-7.3 18,-6.6L18.4,-6.6Q22.4,-7.9 26.2,-10.2L31.6,-16.8Q37.7,-26.7 38.3,-34.4Q38.7,-34.4 38.7,-34.8L38.7,-36.3L37.9,-37.5L37.9,-39.1Q37.9,-45 31.6,-49.2Q31.6,-50 29.7,-50Q29.1,-50 18,-43.4Q15.5,-41 14.8,-39.1Q13.9,-38.3 13.3,-38.3Z"></path><path transform="translate(350 200)" d="M32.4,-66.9Q37.4,-66.9 41.8,-61.8L42.2,-57.1L42.2,-56.7Q42.2,-56.3 39.8,-55.2L39.1,-55.2Q32.3,-57.8 30.5,-63L30.5,-64.9Q31.3,-66.9 32.4,-66.9ZM37.9,-45.5L38.7,-45.5Q40.9,-45.5 41.4,-43.2Q43.4,-41.6 43.4,-39.6L43.4,-26.4L41.4,-19.3Q41.1,-16.8 37.5,-9.2Q33.5,1.4 31.6,1.4L31.6,2.5Q31.6,5.7 24.2,10Q23.6,10 21.1,11.5Q13.7,11.5 5.9,3.3L5.9,2.9L6.6,2.5L10.5,4.9L15.6,4.9Q23.5,0.5 27,-8Q28,-8 29.3,-14.6Q30.5,-14.6 34,-28.7L34,-31.4Q36.3,-37.6 36.3,-42.8L36.3,-43.6Q37.4,-45.5 37.9,-45.5Z"></path><path transform="translate(399 200)" d="M23.4,-46.9L27.7,-46.9Q34.5,-44.9 34.8,-44.9Q41.2,-42.5 44.9,-37.5Q46.5,-37.5 47.3,-34Q50,-32 50,-31.6Q50.4,-31 50.4,-30.1Q50.4,-25.5 44.5,-20.7Q43.9,-20.7 41,-18.8Q33.7,-17.1 32.8,-16.4L28.5,-16.4Q27.5,-17.2 27,-17.2Q20.5,-17.2 17.6,-19.5Q14.8,-19.5 14.8,-21.9L13.7,-21.9Q13.7,-13 19.5,-10.5Q21.1,-10.2 22.3,-9.4L34.4,-9.4L35.5,-10.2L35.9,-10.2Q38.1,-10.2 41.4,-10.5Q43.8,-9.8 44.1,-8.6L44.1,-7.4Q42.9,-4.7 39.8,-2.3L34.4,-0L26.6,-0Q25.9,-0.7 18.8,-2Q18.1,-2.8 14.1,-5.1L9,-11.3Q9,-12.2 7,-15.2Q7,-16.6 5.9,-18.4L5.9,-24.6Q7.1,-28.4 9.8,-34Q11.7,-39.2 18,-44.5Q22.6,-46.9 23.4,-46.9ZM15.2,-31.3L15.2,-28.9Q19.8,-26.2 22.3,-26.2Q22.3,-25.8 22.7,-25.8L25,-25.8Q26.2,-26.5 32,-27.3Q41,-29.5 41,-33.6L41,-34.4Q41,-38.7 32,-41Q32,-42.2 28.1,-42.2Q21.9,-42.2 17.2,-34.8L15.2,-31.3Z"></path><path transform="translate(455 200)" d="M26.2,-49Q32.5,-47.1 34.4,-47.1Q39.1,-42.7 39.1,-40Q39.8,-40 39.8,-37.3Q37.1,-33.4 36.7,-33.4L35.5,-33.4Q33,-34.2 31.3,-38.5Q31.3,-41.5 27,-42.8Q26.2,-40.9 21.5,-36.9Q18.4,-33 15.6,-26Q14.7,-22.2 14.1,-21.3L14.1,-16.2Q14.1,-15.8 13.7,-15.8Q13.7,-10.4 18.4,-10.4Q18.4,-10 18.8,-10L21.5,-10Q22.9,-11 27,-11.5Q27,-11.9 27.3,-11.9L28.1,-11.9L29.3,-11.1L29.7,-11.1Q30.7,-12.2 35.2,-12.7Q35.2,-13.5 37.5,-13.5Q41.3,-13.5 43.4,-10.7L43.4,-8Q38.2,-2.5 36.3,-2.5L28.1,0.6L23.8,0.6Q23.2,-0.2 16.4,-1Q10.1,-3.7 9,-6.8Q7.8,-7.4 5.9,-13.1L5.9,-19.3Q6.5,-20.2 7.4,-25.2Q11.3,-36.8 17.2,-44.7Q22.8,-49 26.2,-49Z"></path><path transform="translate(504 200)" d="M35.9,-65.2L37.1,-65.2Q37.5,-65.2 39.8,-62.1L39.8,-54.3Q45.2,-54.3 49.2,-55.9Q52.3,-55.9 53.9,-50.4Q53.9,-47.1 39.5,-43.4Q37.5,-43.4 35.9,-30.1Q35.2,-30 35.2,-29.3L35.2,-27Q35.2,-24.9 34,-23.4Q33.6,-15.9 33.6,-13.7Q32.8,-13.6 32.8,-12.9L32.8,-10.2L33.6,-10.2Q37.1,-11.6 37.1,-12.1Q38.4,-12.1 47.3,-19.5Q50,-21.9 51.6,-21.9L52,-21.9Q52.7,-21.8 52.7,-21.1L52.7,-19.5Q52.7,-17.5 49.2,-14.5Q48.2,-10.2 46.9,-10.2L46.9,-8.2Q45.1,-6.6 42.6,-2.7Q38.6,0.8 33.2,0.8L32.4,0.8Q24.6,-2 24.6,-7.8Q24.2,-7.8 24.2,-10.5L24.2,-14.5Q24.2,-17.8 24.6,-25Q25.8,-25.3 25.8,-28.1L25.8,-31.6Q26.6,-32.3 27.3,-39.1Q27.7,-39.1 27.7,-39.5L27.7,-40.2Q27.2,-41.8 24.2,-41.8L20.3,-41.8Q8.5,-45.6 7,-48.4Q6.7,-48.4 5.9,-50.4L5.9,-52.7Q5.9,-53.3 7.4,-54.3L8.6,-54.3Q12.6,-52.4 17.6,-51.6Q17.6,-51.2 18,-51.2L27.3,-51.2Q30.5,-52.2 30.5,-56.6Q32.3,-65.2 35.9,-65.2Z"></path><path transform="translate(564 200)" d=""></path><path transform="translate(581 200)" d="M16,-75.6L16.4,-75.6Q24.9,-72.9 25.4,-72.1L25.8,-72.1Q33.2,-72.1 44.1,-69.7Q47.4,-69.7 49.2,-67.8L49.2,-65Q47.6,-62.6 44.9,-61.5L44.1,-61.5Q43.4,-61.5 43.4,-62.7L35.9,-62.7Q35.2,-63.5 29.3,-64.3Q26.1,-65.1 21.5,-67.4Q15.6,-69.8 15.6,-72.5Q15.2,-72.5 15.2,-72.9L15.2,-74.8Q15.3,-75.6 16,-75.6ZM14.1,-62.7L14.8,-62.7Q17,-62.7 18,-60.4Q20.2,-60.4 21.5,-52.9Q21.9,-52.9 21.9,-52.5L21.9,-51.8L21.1,-50.6L21.1,-43.9Q21.1,-37.7 19.9,-36.5L19.9,-33.8L19.5,-31.1L21.1,-29.9L22.7,-29.9L23.8,-30.7Q35.9,-31.1 43,-31.1L43.4,-31.1Q50.9,-29 51.2,-27.5Q50,-26 49.2,-26L49.2,-25.2Q51.2,-25.1 51.2,-24L51.2,-23.6Q51.2,-22.5 46.5,-22.1Q46.5,-21.7 46.1,-21.7L43,-21.7Q39.1,-21.7 31.3,-21.3Q31.3,-20.5 30.5,-20.5L26.6,-20.5Q25.7,-21.4 19.9,-22.1Q19.9,-22.5 19.5,-22.5L17.6,-22.5Q17.6,-21.3 16.4,-21.3L16.4,-18.2Q16.4,-14.2 15.2,-12.7L15.2,-9.2Q15.2,-7.8 14.1,-5.3Q14.1,-1.2 13.7,9.6L11.7,11.1L11.3,11.1Q10.1,10.1 7.8,9.2L5.9,6.8L5.9,-2.1Q7,-3.3 7,-10.7L7,-12.7Q8.2,-13.9 8.2,-21.3L8.2,-22.9Q9.4,-24 9.4,-31.8Q10.2,-31.8 10.2,-33Q11.7,-47.6 11.7,-49.8L11.7,-58.4Q13.2,-62.7 14.1,-62.7Z"></path><path transform="translate(638 200)" d="M26.2,-54.7Q34.5,-53 36.7,-51.2Q38.3,-48.5 39.5,-48.4Q44.1,-39.5 44.1,-35.2Q44.5,-35.2 44.5,-34.8L44.5,-29.3L43.8,-28.1L43.8,-24.6Q36.3,0.8 21.5,0.8Q15.4,0.8 10.9,-6.6Q8.8,-6.6 6.6,-17.2Q6.3,-17.2 6.3,-17.6L6.3,-19.1Q6.3,-23 5.9,-30.9L6.3,-30.9L5.9,-31.6L5.9,-32.4Q5.9,-33.6 6.3,-33.6L5.9,-35.5Q6.6,-45.3 10.5,-45.3Q12.3,-45.3 13.3,-46.9Q18.6,-52.6 26.2,-54.7ZM13.3,-38.3Q12.9,-31.3 12.9,-28.9Q12.9,-25.6 13.3,-15.6Q13.8,-15.1 16,-9.4Q18,-7.3 18,-6.6L18.4,-6.6Q22.4,-7.9 26.2,-10.2L31.6,-16.8Q37.7,-26.7 38.3,-34.4Q38.7,-34.4 38.7,-34.8L38.7,-36.3L37.9,-37.5L37.9,-39.1Q37.9,-45 31.6,-49.2Q31.6,-50 29.7,-50Q29.1,-50 18,-43.4Q15.5,-41 14.8,-39.1Q13.9,-38.3 13.3,-38.3Z"></path><path transform="translate(688 200)" d="M28.9,-55.4Q28.9,-54.1 33.2,-51.5Q35.3,-48.7 47.3,-44.8L49.6,-44.8Q52.7,-44.8 58.6,-40.5L58.6,-39.7Q58.6,-37.6 55.9,-35.4L50.8,-35.4Q49.7,-36.1 41,-37.8L35.9,-40.5Q31.8,-42.7 28.9,-45.6L28.1,-45.6Q28.1,-43.5 25.8,-37.4L25.8,-35.1L21.5,-14Q21.1,-14 21.1,-13.6L21.1,-11.6Q21.1,-8.2 17.6,0.1L17.6,5.6Q17.6,6 13.3,9.1L11.3,9.1Q6.6,6.2 6.6,-0.3L6.6,-3L5.9,-4.2L5.9,-5L6.6,-6.2L6.6,-12Q6.6,-12.9 6.3,-13.6Q7,-15 7,-16.7L7,-28Q7,-31.3 6.6,-38.6L7.4,-39L9,-39Q14.1,-35.6 14.1,-28.8L14.1,-26.5L14.8,-25.3L14.8,-22.2L16,-22.2Q19.5,-34.5 23.8,-53.4Q24.4,-55.4 28.9,-55.4Z"></path><path transform="translate(752 200)" d=""></path><path transform="translate(769 200)" d="M68.8,-70.9L69.1,-70.9Q76.1,-68.8 79.3,-65Q85.9,-56.6 85.9,-50.2Q87.1,-47.7 87.1,-45.1L87.1,-40.8L87.9,-39.6L87.9,-28.3Q87.2,-27.1 86.3,-22.5Q84.9,-14.6 78.5,-6.8Q77.4,-3.5 74.2,-1L67.2,4.5Q64,5.7 60.5,6.1Q60.5,6.4 60.2,6.4L58.6,6.4Q51.6,3.5 48,-2.1Q45.1,-6.7 42.6,-17Q42.6,-18.3 42.2,-28.3Q41.4,-28.3 41.4,-29.1L41.4,-29.9L42.2,-31.1L42.2,-31.4Q41.4,-32.4 41.4,-33.4Q40,-33.4 37.9,-22.9L33.2,-10.7Q31.2,-8.4 30.1,-4.1Q29,-4.1 27.7,0.6Q24.1,4.9 22.7,4.9L21.9,5.3L18.8,5.3Q16.2,4.3 15.2,2.9Q12.1,0.5 10.2,-11.1L9.8,-11.9Q9.8,-15.2 9.4,-22.5Q8.6,-22.5 8.6,-23.6Q8.6,-26.6 8.2,-40Q7.4,-40 7.4,-41.2Q7,-49.5 7,-51Q5.9,-51 5.9,-55.7L7.4,-56.8L10.5,-56.8Q14.7,-56.8 15.6,-48.6Q16.4,-48.5 16.4,-47.9L15.6,-46.7L15.6,-45.1Q16.8,-43.9 16.8,-36.5L16.8,-20.5Q18,-19.3 18,-13.1L18,-10L18.8,-8.8L18.8,-6.4L19.9,-6.4Q19.9,-7.6 23.8,-12.3L30.5,-26.8Q30.5,-28 36.7,-45.9Q40.1,-56.7 42.2,-57.6L42.6,-57.6Q45,-56.3 48,-53.7L48,-52.9L47.3,-51.8L47.3,-51Q48.4,-49.5 48.4,-45.5L48.4,-40.8Q49.6,-39.6 49.6,-32.2L49.6,-20.5Q50.8,-19 50.8,-15L50.8,-13.5Q51.6,-12.7 52.3,-8Q53.9,-3.4 55.5,-2.9L58.2,-2.9Q64.3,-6.5 68.8,-12.3Q75,-21.3 75.8,-27.1Q77.7,-32.8 77.7,-38.5L77.7,-47.1Q77.7,-55.5 72.7,-65Q71.2,-65 68,-69.7L68,-70.1Q68.1,-70.9 68.8,-70.9Z"></path><path transform="translate(863 200)" d="M23.4,-46.9L27.7,-46.9Q34.5,-44.9 34.8,-44.9Q41.2,-42.5 44.9,-37.5Q46.5,-37.5 47.3,-34Q50,-32 50,-31.6Q50.4,-31 50.4,-30.1Q50.4,-25.5 44.5,-20.7Q43.9,-20.7 41,-18.8Q33.7,-17.1 32.8,-16.4L28.5,-16.4Q27.5,-17.2 27,-17.2Q20.5,-17.2 17.6,-19.5Q14.8,-19.5 14.8,-21.9L13.7,-21.9Q13.7,-13 19.5,-10.5Q21.1,-10.2 22.3,-9.4L34.4,-9.4L35.5,-10.2L35.9,-10.2Q38.1,-10.2 41.4,-10.5Q43.8,-9.8 44.1,-8.6L44.1,-7.4Q42.9,-4.7 39.8,-2.3L34.4,-0L26.6,-0Q25.9,-0.7 18.8,-2Q18.1,-2.8 14.1,-5.1L9,-11.3Q9,-12.2 7,-15.2Q7,-16.6 5.9,-18.4L5.9,-24.6Q7.1,-28.4 9.8,-34Q11.7,-39.2 18,-44.5Q22.6,-46.9 23.4,-46.9ZM15.2,-31.3L15.2,-28.9Q19.8,-26.2 22.3,-26.2Q22.3,-25.8 22.7,-25.8L25,-25.8Q26.2,-26.5 32,-27.3Q41,-29.5 41,-33.6L41,-34.4Q41,-38.7 32,-41Q32,-42.2 28.1,-42.2Q21.9,-42.2 17.2,-34.8L15.2,-31.3Z"></path><path transform="translate(919 200)" d="M17.2,-73.8L19.1,-73.8L23.4,-69.9L23.4,-60.2Q23.4,-59.8 23.8,-59.8L23.4,-59L23.4,-52.7Q23.4,-48.7 22.3,-47.3L22.3,-43.4Q22.3,-38.8 20.7,-32.8Q21.1,-32.2 21.1,-30.5L21.9,-30.5Q22.9,-31.6 27.3,-32Q33.4,-32 37.9,-27Q42.4,-27 43.4,-18Q40.6,-11.1 36.7,-8.6Q31.5,-2.2 24.6,-0Q16.1,7 12.9,7.4L11.7,7.4Q7.5,7.4 5.9,4.3L5.9,1.2Q7.8,-3.5 9.4,-3.5Q9.4,-4.4 9,-5.1Q9.4,-7.7 9.4,-9.4L9.4,-11.7Q10.5,-12.9 10.5,-19.1L10.5,-21.5Q10.6,-22.3 11.3,-22.3Q11.7,-29.5 11.7,-32.8L11.7,-35.2Q12.9,-36.2 12.9,-44.5L12.9,-46.9Q14.1,-48 14.1,-54.3L14.1,-70.7Q14.2,-71.6 17.2,-73.8ZM27,-24.6Q27,-23.4 24.6,-23Q20.2,-17.7 18.8,-11.3L18.4,-11.3L18.8,-9.4Q18.4,-7.3 18.4,-7L19.9,-7Q19.9,-8 23,-9.8Q28.9,-14.1 28.9,-14.8Q32,-17.1 33.6,-22.3L33.6,-23Q33.6,-23.6 32,-24.6L27,-24.6Z"></path></svg>