<svg  xmlns="http://www.w3.org/2000/svg" xmlns:xlink="http://www.w3.org/1999/xlink" width="905" height="300" viewBox="0 0 929 324"><path transform="translate(0 100)" d="M46.55,6.5Q45.3,5.4 45.3,3.3L45.3,-25.3L29.6,-25.3Q21.7,-25.3 17.2,-27.05Q12.7,-28.8 10.75,-32.9Q8.8,-37 8.8,-44.5Q8.8,-52.1 10.85,-56.25Q12.9,-60.4 17.35,-62.05Q21.8,-63.7 29.6,-63.7L45.3,-63.7L45.3,-79.4Q45.3,-81.4 46.55,-82.55Q47.8,-83.7 50,-83.7Q52.1,-83.7 53.4,-82.55Q54.7,-81.4 54.7,-79.4L54.7,-63.7L70.5,-63.7Q78.3,-63.7 82.75,-62.05Q87.2,-60.4 89.25,-56.25Q91.3,-52.1 91.3,-44.5Q91.3,-37.1 89.15,-32.95Q87,-28.8 82.5,-27.05Q78,-25.3 70.5,-25.3L54.7,-25.3L54.7,3.3Q54.7,5.4 53.4,6.5Q52.1,7.6 50,7.6Q47.8,7.6 46.55,6.5ZM19.15,-37.9Q20.1,-35.8 22.45,-35Q24.8,-34.2 29.6,-34.2L45.3,-34.2L45.3,-54.7L29.6,-54.7Q24.9,-54.7 22.55,-54Q20.2,-53.3 19.2,-51.2Q18.2,-49.1 18.2,-44.5Q18.2,-40 19.15,-37.9ZM70.5,-34.2Q74.9,-34.2 77.3,-35Q79.7,-35.8 80.85,-38Q82,-40.2 82,-44.5Q82,-49.1 80.95,-51.2Q79.9,-53.3 77.6,-54Q75.3,-54.7 70.5,-54.7L54.7,-54.7L54.7,-34.2L70.5,-34.2Z"></path><path transform="translate(100 100)" d="M8.5,7.5Q5.2,7.5 3.9,4.2Q3.6,3.5 3.6,2.7Q3.6,1.1 4.65,-0.25Q5.7,-1.6 7.5,-2Q30.4,-8.1 43.9,-20.2Q31.7,-34.3 25.5,-56.5L8.9,-56.5Q7.2,-56.5 5.95,-57.7Q4.7,-58.9 4.7,-60.7Q4.7,-62.4 5.95,-63.6Q7.2,-64.8 8.9,-64.8L45.1,-64.8L45.1,-79.1Q45.1,-81.3 46.55,-82.7Q48,-84.1 50.1,-84.1Q52.2,-84.1 53.6,-82.7Q55,-81.3 55,-79.1L55,-64.8L91,-64.8Q92.7,-64.8 93.95,-63.6Q95.2,-62.4 95.2,-60.7Q95.2,-58.9 93.95,-57.7Q92.7,-56.5 91,-56.5L75.2,-56.5Q69.2,-34.4 56.9,-20.2Q70.6,-8 93.4,-2Q95.2,-1.6 96.2,-0.3Q97.2,1 97.2,2.6Q97.2,3.5 96.9,4.2Q95.6,7.5 92.3,7.5Q91.1,7.5 89.9,7.1Q65.3,-0.1 50.4,-13.5Q35.5,-0.2 10.9,7.1Q9.7,7.5 8.5,7.5ZM50.4,-26.9Q60.3,-38.8 65,-56.5L35.6,-56.5Q40.5,-38.9 50.4,-26.9Z"></path><path transform="translate(200 100)" d="M10,6.25Q8.7,5.1 8.7,3.3L8.7,-57.8Q8.7,-67.2 11,-71.9Q13.3,-76.6 18.65,-78.3Q24,-80 34.4,-80L65.4,-80Q75.8,-80 81.15,-78.3Q86.5,-76.6 88.8,-71.9Q91.1,-67.2 91.1,-57.8L91.1,-9.7Q91.1,-3.4 89.4,0.1Q87.7,3.6 84.15,5.05Q80.6,6.5 74.5,6.5Q72.5,6.5 71.15,5.2Q69.8,3.9 69.8,1.9Q69.8,0.1 70.8,-1.15Q71.8,-2.4 73.5,-2.5Q77.1,-2.7 78.95,-3.3Q80.8,-3.9 81.6,-5.55Q82.4,-7.2 82.4,-10.6L82.4,-57.8Q82.4,-64.4 81.1,-67.35Q79.8,-70.3 76.4,-71.2Q73,-72.1 65.4,-72.1L34.4,-72.1Q26.8,-72.1 23.45,-71.2Q20.1,-70.3 18.8,-67.35Q17.5,-64.4 17.5,-57.8L17.5,3.3Q17.5,5.1 16.15,6.25Q14.8,7.4 13.1,7.4Q11.3,7.4 10,6.25ZM32.5,-38.4Q27.6,-43.3 23.4,-46.8Q21.9,-48 21.9,-49.8Q21.9,-50.9 22.7,-52Q23.9,-53.6 25.9,-53.6Q27.3,-53.6 28.2,-52.8Q31.7,-50 34.7,-47.1Q36.3,-54.8 37.3,-65.3Q37.4,-66.9 38.55,-67.9Q39.7,-68.9 41.2,-68.9Q43,-68.9 44.2,-67.6Q45.4,-66.3 45.2,-64.5Q44.2,-52.1 41.4,-40.6Q46.2,-35.6 50.9,-30.1Q52,-28.7 52,-27.2Q52,-25.4 50.6,-24Q49.4,-22.8 47.8,-22.8Q46,-22.8 44.9,-24.2Q43,-26.6 38.8,-31.6Q34.2,-17.7 26.3,-6.1Q25.7,-5.1 24.75,-4.55Q23.8,-4 22.7,-4Q21.4,-4 20.3,-4.8Q18.4,-6 18.4,-8.2Q18.4,-9.5 19.1,-10.5Q28,-23.3 32.5,-38.4ZM59.4,-38.6Q54.7,-43.7 50.9,-46.9Q49.5,-48 49.5,-49.8Q49.5,-51.2 50.4,-52.2Q51.6,-53.7 53.5,-53.7Q54.9,-53.7 55.9,-52.7Q58.9,-50.2 61.5,-47.6Q62.9,-55.5 63.7,-65.1Q63.8,-66.7 64.95,-67.75Q66.1,-68.8 67.6,-68.8Q69.4,-68.8 70.65,-67.5Q71.9,-66.2 71.7,-64.5Q70.8,-52.3 68.2,-40.8Q73.2,-35.6 78.1,-29.4Q79.1,-27.9 79.1,-26.6Q79.1,-24.7 77.5,-23.3Q76.4,-22.3 74.8,-22.3Q72.9,-22.3 71.8,-23.8Q69.9,-26.3 65.7,-31.5Q61.2,-17.2 53.2,-5.1Q52.5,-4.1 51.55,-3.5Q50.6,-2.9 49.5,-2.9Q48.4,-2.9 47.2,-3.6Q46.3,-4.2 45.75,-5.15Q45.2,-6.1 45.2,-7.1Q45.2,-8.3 45.9,-9.3Q55.1,-22.8 59.4,-38.6Z"></path><path transform="translate(300 100)" d="M34.4,7.8Q33,6.5 32.9,4.4Q32.9,2.6 34.3,1.3Q35.7,-0 37.8,-0Q45.7,-0.2 49.05,-3.15Q52.4,-6.1 52.4,-13.1Q52.4,-17.3 51.2,-20.7L7.9,-20.7Q6.1,-20.7 4.95,-21.85Q3.8,-23 3.8,-24.8Q3.8,-26.6 4.95,-27.75Q6.1,-28.9 7.9,-28.9L46.4,-28.9L43.3,-31.9Q42.5,-32.5 42.05,-33.4Q41.6,-34.3 41.6,-35.3Q41.6,-36.8 42.6,-37.9Q44.1,-39.6 46.3,-39.6Q47.8,-39.6 49.3,-38.7L51.1,-37.2L59.8,-42.5Q61.4,-43.5 61.4,-44.5Q61.4,-45.1 60.75,-45.5Q60.1,-45.9 58.9,-45.9L27.5,-45.9Q25.7,-45.9 24.55,-47.05Q23.4,-48.2 23.4,-50Q23.4,-51.8 24.55,-53Q25.7,-54.2 27.5,-54.2L63.9,-54.2Q68.2,-54.2 70.8,-51.95Q73.4,-49.7 73.4,-46.5Q73.4,-44.4 72.15,-42.35Q70.9,-40.3 68.5,-38.7Q62.6,-34.7 56.7,-31.1Q57.4,-30.2 58,-28.9L92,-28.9Q93.8,-28.9 94.95,-27.75Q96.1,-26.6 96.1,-24.8Q96.1,-23 94.95,-21.85Q93.8,-20.7 92,-20.7L61.1,-20.7Q62,-17 62,-12.6Q62,-1.4 56.15,3.85Q50.3,9.1 37.8,9.1Q35.8,9.1 34.4,7.8ZM7.6,-57.5Q7.6,-65 11.45,-68.2Q15.3,-71.4 24.6,-71.4L44.7,-71.4L44.7,-79.8Q44.7,-82 46.15,-83.35Q47.6,-84.7 49.8,-84.7Q51.9,-84.7 53.35,-83.35Q54.8,-82 54.8,-79.8L54.8,-71.4L75.5,-71.4Q84.8,-71.4 88.6,-68.2Q92.4,-65 92.4,-57.5L92.4,-51.1Q92.4,-49 91.05,-47.75Q89.7,-46.5 87.7,-46.5Q85.7,-46.5 84.35,-47.7Q83,-48.9 83,-51L83,-57.3Q83,-60.7 81.35,-62.05Q79.7,-63.4 75.2,-63.4L24.9,-63.4Q20.4,-63.4 18.75,-62.05Q17.1,-60.7 17.1,-57.3L17.1,-51Q17.1,-48.9 15.7,-47.7Q14.3,-46.5 12.3,-46.5Q10.4,-46.5 9,-47.8Q7.6,-49.1 7.6,-51.1L7.6,-57.5Z"></path><path transform="translate(400 100)" d="M62.15,7.15Q60.8,5.8 60.8,3.9L60.8,-44.4L41.1,-44.4Q39.4,-44.4 38.15,-45.65Q36.9,-46.9 36.9,-48.6Q36.9,-50.4 38.15,-51.6Q39.4,-52.8 41.1,-52.8L60.8,-52.8L60.8,-79.8Q60.8,-81.7 62.15,-83.05Q63.5,-84.4 65.4,-84.4Q67.3,-84.4 68.65,-83.05Q70,-81.7 70,-79.8L70,-52.8L92.2,-52.8Q94,-52.8 95.25,-51.6Q96.5,-50.4 96.5,-48.6Q96.5,-46.9 95.25,-45.65Q94,-44.4 92.2,-44.4L70,-44.4L70,3.9Q70,5.8 68.65,7.15Q67.3,8.5 65.4,8.5Q63.5,8.5 62.15,7.15ZM6.1,-51.7Q7.2,-52.9 9,-52.9L19.4,-52.9Q24.4,-52.9 26.8,-50.5Q29.2,-48.1 29.2,-43L29.2,-14Q30.9,-15 32,-15.55Q33.1,-16.1 33.7,-16.4Q34.7,-16.9 35.4,-16.9Q36.4,-16.9 37.3,-16.25Q38.2,-15.6 38.7,-14.5Q39,-13.8 39,-13Q39,-10.5 36.6,-9.1Q24.5,-1.4 18,1.5Q17.1,1.9 15.9,1.9Q13.4,1.9 12.2,-0.7Q11.9,-1.6 11.9,-2.3Q11.9,-3.6 12.65,-4.65Q13.4,-5.7 14.8,-6.3Q16.8,-7.1 21,-9.5L21,-40.2Q21,-42.8 20.05,-43.75Q19.1,-44.7 16.6,-44.7L9,-44.7Q7.2,-44.7 6.1,-45.9Q5,-47.1 5,-48.8Q5,-50.5 6.1,-51.7ZM11.8,-78.1Q12.8,-78.7 13.9,-78.7Q14.8,-78.7 16,-78.2Q18.4,-77 22.35,-74.45Q26.3,-71.9 28.5,-70.3Q30.5,-68.8 30.5,-66.6Q30.5,-65.4 29.7,-64.1Q29.1,-63.2 28.1,-62.65Q27.1,-62.1 26,-62.1Q24.7,-62.1 23.5,-63Q21.4,-64.6 17.6,-67.1Q13.8,-69.6 11.5,-70.9Q9.6,-71.9 9.6,-74.2Q9.6,-75.5 10.2,-76.5Q10.8,-77.5 11.8,-78.1Z"></path><path transform="translate(500 100)" d="M8.7,5Q7.5,5 6.45,4.35Q5.4,3.7 4.7,2.5Q4.1,1.5 4.1,0.4Q4.1,-2 6.7,-3.5Q11.3,-6.3 15.5,-10.45Q19.7,-14.6 24.8,-20.9Q20.8,-33.1 19.1,-49.1L7.1,-48Q5.2,-47.9 3.95,-49.05Q2.7,-50.2 2.7,-52.1Q2.7,-53.6 3.7,-54.75Q4.7,-55.9 6.4,-56L18.3,-57.1Q17.5,-68.1 17.5,-80.1Q17.5,-82 18.75,-83.2Q20,-84.4 21.9,-84.4Q23.7,-84.4 24.95,-83.25Q26.2,-82.1 26.2,-80.2Q26.2,-67.9 26.8,-57.7L53.6,-59.6Q55.6,-59.7 56.8,-58.5Q58,-57.3 58,-55.3Q58,-53.8 57,-52.75Q56,-51.7 54.3,-51.6L27.5,-49.7Q28.8,-37.7 31.3,-28.5Q36.9,-35.8 41.2,-44.3Q42.4,-46.8 44.9,-46.8Q46.9,-46.8 48.15,-45.6Q49.4,-44.4 49.4,-42.7Q49.4,-41.6 48.8,-40.5Q43,-29 34.5,-19Q38.5,-9.1 45.1,-3.2Q46.4,-1.9 47.4,-1.9Q48.5,-1.9 49.4,-3.9Q50.5,-6.4 52.1,-11.3Q52.5,-12.6 53.6,-13.35Q54.7,-14.1 55.9,-14.1Q56.7,-14.1 57.4,-13.8Q58.8,-13.3 59.55,-12.3Q60.3,-11.3 60.3,-10Q60.3,-9 60.1,-8.5Q58.7,-3.7 56.8,0.7Q53.8,8.1 48.4,8.1Q44.3,8.1 39.5,3.6Q32.8,-2.7 28.2,-12.3Q21.7,-4.9 18.45,-1.65Q15.2,1.6 11.2,4.2Q9.9,5 8.7,5ZM32.5,-74.4Q32.5,-76.2 33.7,-77.2Q34.9,-78.4 36.5,-78.4Q38,-78.4 39.1,-77.4Q41,-75.9 43.55,-73.65Q46.1,-71.4 47.3,-70.1Q48.4,-69 48.4,-67.5Q48.4,-65.7 46.9,-64.3Q45.6,-63.2 44.2,-63.2Q42.6,-63.2 41.2,-64.6Q39.9,-66 37.6,-68.2Q35.3,-70.4 33.5,-72Q32.5,-72.9 32.5,-74.4ZM62.6,-70.5Q62.6,-72.5 63.85,-73.65Q65.1,-74.8 66.9,-74.8Q68.8,-74.8 70.05,-73.65Q71.3,-72.5 71.3,-70.5L71.3,-19.2Q71.3,-17.4 70,-16.15Q68.7,-14.9 66.9,-14.9Q65.1,-14.9 63.85,-16.15Q62.6,-17.4 62.6,-19.2L62.6,-70.5ZM69.15,-0.95Q70.3,-2.3 72.3,-2.4Q76.1,-2.8 77.75,-3.4Q79.4,-4 80,-5.45Q80.6,-6.9 80.6,-10.2L80.6,-78.4Q80.6,-80.4 81.9,-81.6Q83.2,-82.8 85.1,-82.8Q87,-82.8 88.25,-81.6Q89.5,-80.4 89.5,-78.4L89.5,-8.6Q89.5,-2.6 88.05,0.75Q86.6,4.1 83,5.6Q79.4,7.1 72.8,7.1Q70.8,7.1 69.4,5.7Q68,4.3 68,2.3Q68,0.4 69.15,-0.95Z"></path><path transform="translate(0 200)" d="M26.4,-1.25Q25.2,-2.5 25.2,-4.8L25.2,-61.4L8,-61.4Q5.7,-61.4 4.45,-62.5Q3.2,-63.6 3.2,-65.7Q3.2,-67.8 4.45,-68.9Q5.7,-70 8,-70L51.6,-70Q56.3,-70 56.3,-65.7Q56.3,-61.4 51.6,-61.4L34.4,-61.4L34.4,-4.8Q34.4,-2.5 33.25,-1.25Q32.1,-0 29.9,-0Q27.6,-0 26.4,-1.25Z"></path><path transform="translate(60 200)" d="M7.85,-1.25Q6.7,-2.5 6.7,-4.8L6.7,-67Q6.7,-69.3 7.85,-70.5Q9,-71.7 11.2,-71.7Q15.7,-71.7 15.7,-67L15.7,-41.8Q17.6,-45 21.15,-47.1Q24.7,-49.2 29.1,-49.2Q36.9,-49.2 41.55,-44.25Q46.2,-39.3 46.2,-30.3L46.2,-4.8Q46.2,-2.5 45.05,-1.25Q43.9,-0 41.7,-0Q37.3,-0 37.3,-4.8L37.3,-28.4Q37.3,-34.5 34.55,-37.75Q31.8,-41 27.2,-41Q22.1,-41 18.9,-37.65Q15.7,-34.3 15.7,-28.7L15.7,-4.8Q15.7,-2.5 14.55,-1.25Q13.4,-0 11.2,-0Q9,-0 7.85,-1.25Z"></path><path transform="translate(113 200)" d="M15.1,-1.85Q9.9,-4.8 7,-10.45Q4.1,-16.1 4.1,-24Q4.1,-31.5 6.95,-37.25Q9.8,-43 14.9,-46.1Q20,-49.2 26.6,-49.2Q32.9,-49.2 37.65,-46.15Q42.4,-43.1 44.9,-38.15Q47.4,-33.2 47.4,-27.9Q47.4,-25.1 46.3,-24.1Q45.2,-23.1 42.7,-23.1L12.9,-23.1Q13,-15.2 16.85,-11Q20.7,-6.8 27.2,-6.8Q34.8,-6.8 38.7,-12.9Q40.9,-15.3 42.6,-15.3Q43.7,-15.3 44.7,-14.6Q46.6,-13.3 46.6,-11.3Q46.6,-9.7 45.3,-8.1Q38.9,1.1 27.1,1.1Q20.3,1.1 15.1,-1.85ZM38.6,-30.3Q37.8,-35.6 34.55,-38.75Q31.3,-41.9 26.5,-41.9Q21.3,-41.9 17.9,-38.95Q14.5,-36 13.4,-30.3L38.6,-30.3Z"></path><path transform="translate(165 200)" d=""></path><path transform="translate(193 200)" d="M8.85,-1.25Q7.7,-2.5 7.7,-4.8L7.7,-65.3Q7.7,-70 12.4,-70L39,-70Q59.8,-70 59.8,-50.8Q59.8,-31.3 39,-31.3L16.8,-31.3L16.8,-4.8Q16.8,-2.5 15.6,-1.25Q14.4,-0 12.2,-0Q10,-0 8.85,-1.25ZM37.9,-40Q44,-40 47.1,-42.6Q50.2,-45.2 50.2,-50.8Q50.2,-56.3 47.1,-58.85Q44,-61.4 37.9,-61.4L16.8,-61.4L16.8,-40L37.9,-40Z"></path><path transform="translate(256 200)" d="M7.85,-1.25Q6.7,-2.5 6.7,-4.8L6.7,-43.3Q6.7,-45.6 7.9,-46.8Q9.1,-48 11.4,-48Q15.4,-48 15.4,-44.2L15.4,-40.5Q17.4,-44.4 21.45,-46.8Q25.5,-49.2 30.2,-49.2Q33.1,-49.2 34.7,-47.95Q36.3,-46.7 36.3,-44.3Q36.3,-42.4 35.3,-41.4Q34.3,-40.4 32.8,-40.4Q32.1,-40.4 31.15,-40.5Q30.2,-40.6 29.1,-40.6Q23.4,-40.6 19.55,-36.9Q15.7,-33.2 15.7,-27.4L15.7,-4.8Q15.7,-0 11.2,-0Q9,-0 7.85,-1.25Z"></path><path transform="translate(294 200)" d="M15.15,-2.05Q10,-5.2 7.05,-10.95Q4.1,-16.7 4.1,-24.1Q4.1,-31.4 7.05,-37.15Q10,-42.9 15.2,-46.05Q20.4,-49.2 26.9,-49.2Q33.4,-49.2 38.6,-46.05Q43.8,-42.9 46.75,-37.15Q49.7,-31.4 49.7,-24.1Q49.7,-16.7 46.75,-10.95Q43.8,-5.2 38.6,-2.05Q33.4,1.1 26.9,1.1Q20.3,1.1 15.15,-2.05ZM16.9,-11.7Q20.7,-7.1 26.9,-7.1Q33.1,-7.1 36.9,-11.7Q40.7,-16.3 40.7,-24.1Q40.7,-31.9 36.9,-36.45Q33.1,-41 26.9,-41Q20.7,-41 16.9,-36.45Q13.1,-31.9 13.1,-24.1Q13.1,-16.3 16.9,-11.7Z"></path><path transform="translate(348 200)" d="M-2.3,20.4Q-4.4,20.2 -5.45,18.85Q-6.5,17.5 -6.5,15.3Q-6.5,11.6 -4.1,11.6Q-3.3,11.6 -2.3,11.7Q-1.3,11.8 -0.3,11.8Q4.2,11.8 5.85,9.9Q7.5,8 7.5,2.9L7.5,-43.3Q7.5,-45.6 8.7,-46.8Q9.9,-48 12,-48Q16.4,-48 16.4,-43.3L16.4,2.9Q16.4,12.5 12.85,16.6Q9.3,20.7 1.3,20.7Q-0.4,20.7 -2.3,20.4ZM7.75,-67.25Q9.5,-69 12,-69Q14.4,-69 16.15,-67.25Q17.9,-65.5 17.9,-63Q17.9,-60.5 16.15,-58.75Q14.4,-57 12,-57Q9.5,-57 7.75,-58.75Q6,-60.5 6,-63Q6,-65.5 7.75,-67.25Z"></path><path transform="translate(373 200)" d="M15.1,-1.85Q9.9,-4.8 7,-10.45Q4.1,-16.1 4.1,-24Q4.1,-31.5 6.95,-37.25Q9.8,-43 14.9,-46.1Q20,-49.2 26.6,-49.2Q32.9,-49.2 37.65,-46.15Q42.4,-43.1 44.9,-38.15Q47.4,-33.2 47.4,-27.9Q47.4,-25.1 46.3,-24.1Q45.2,-23.1 42.7,-23.1L12.9,-23.1Q13,-15.2 16.85,-11Q20.7,-6.8 27.2,-6.8Q34.8,-6.8 38.7,-12.9Q40.9,-15.3 42.6,-15.3Q43.7,-15.3 44.7,-14.6Q46.6,-13.3 46.6,-11.3Q46.6,-9.7 45.3,-8.1Q38.9,1.1 27.1,1.1Q20.3,1.1 15.1,-1.85ZM38.6,-30.3Q37.8,-35.6 34.55,-38.75Q31.3,-41.9 26.5,-41.9Q21.3,-41.9 17.9,-38.95Q14.5,-36 13.4,-30.3L38.6,-30.3Z"></path><path transform="translate(425 200)" d="M15.15,-2.05Q10,-5.2 7.05,-10.9Q4.1,-16.6 4.1,-24Q4.1,-31.4 7.05,-37.1Q10,-42.8 15.2,-46Q20.4,-49.2 26.9,-49.2Q35.3,-49.2 41.3,-44Q43,-42.7 43,-41Q43,-39 41.2,-37.8Q39.8,-36.7 38.4,-36.7Q37,-36.7 34.9,-38.2Q31.5,-41 26.9,-41Q20.7,-41 16.9,-36.4Q13.1,-31.8 13.1,-24Q13.1,-16.2 16.9,-11.65Q20.7,-7.1 26.9,-7.1Q31.4,-7.1 34.8,-9.7Q37,-11.3 38.6,-11.3Q39.8,-11.3 41.1,-10.4Q43,-9 43,-7.2Q43,-5.5 41.4,-4.2Q35.3,1.1 26.9,1.1Q20.3,1.1 15.15,-2.05Z"></path><path transform="translate(474 200)" d="M15.4,-1.7Q12.1,-4.5 12.1,-11.7L12.1,-40.2L7.1,-40.2Q2.4,-40.2 2.4,-44.1Q2.4,-46.1 3.45,-47.05Q4.5,-48 7.1,-48L12.1,-48L12.1,-60.5Q12.1,-62.7 13.3,-63.95Q14.5,-65.2 16.6,-65.2Q18.7,-65.2 19.85,-64Q21,-62.8 21,-60.5L21,-48L30.2,-48Q34.9,-48 34.9,-44.1Q34.9,-40.2 30.2,-40.2L21,-40.2L21,-13.6Q21,-9.8 22.65,-8.4Q24.3,-7 28,-7Q30.7,-7 31.95,-6.85Q33.2,-6.7 34.05,-5.95Q34.9,-5.2 34.9,-3.4Q34.9,-0.7 32.5,0.2Q30.1,1.1 25.9,1.1Q18.7,1.1 15.4,-1.7Z"></path><path transform="translate(512 200)" d=""></path><path transform="translate(540 200)" d="M8.85,-1.25Q7.7,-2.5 7.7,-4.8L7.7,-65.2Q7.7,-70 12.4,-70L48.8,-70Q53.5,-70 53.5,-65.7Q53.5,-61.4 48.8,-61.4L16.8,-61.4L16.8,-40.1L45.6,-40.1Q47.9,-40.1 49.15,-38.95Q50.4,-37.8 50.4,-35.7Q50.4,-33.7 49.15,-32.55Q47.9,-31.4 45.6,-31.4L16.8,-31.4L16.8,-4.8Q16.8,-2.5 15.6,-1.25Q14.4,-0 12.2,-0Q10,-0 8.85,-1.25Z"></path><path transform="translate(596 200)" d="M15.15,-2.05Q10,-5.2 7.05,-10.95Q4.1,-16.7 4.1,-24.1Q4.1,-31.4 7.05,-37.15Q10,-42.9 15.2,-46.05Q20.4,-49.2 26.9,-49.2Q33.4,-49.2 38.6,-46.05Q43.8,-42.9 46.75,-37.15Q49.7,-31.4 49.7,-24.1Q49.7,-16.7 46.75,-10.95Q43.8,-5.2 38.6,-2.05Q33.4,1.1 26.9,1.1Q20.3,1.1 15.15,-2.05ZM16.9,-11.7Q20.7,-7.1 26.9,-7.1Q33.1,-7.1 36.9,-11.7Q40.7,-16.3 40.7,-24.1Q40.7,-31.9 36.9,-36.45Q33.1,-41 26.9,-41Q20.7,-41 16.9,-36.45Q13.1,-31.9 13.1,-24.1Q13.1,-16.3 16.9,-11.7Z"></path><path transform="translate(650 200)" d="M7.85,-1.25Q6.7,-2.5 6.7,-4.8L6.7,-43.3Q6.7,-45.6 7.9,-46.8Q9.1,-48 11.4,-48Q15.4,-48 15.4,-44.2L15.4,-40.5Q17.4,-44.4 21.45,-46.8Q25.5,-49.2 30.2,-49.2Q33.1,-49.2 34.7,-47.95Q36.3,-46.7 36.3,-44.3Q36.3,-42.4 35.3,-41.4Q34.3,-40.4 32.8,-40.4Q32.1,-40.4 31.15,-40.5Q30.2,-40.6 29.1,-40.6Q23.4,-40.6 19.55,-36.9Q15.7,-33.2 15.7,-27.4L15.7,-4.8Q15.7,-0 11.2,-0Q9,-0 7.85,-1.25Z"></path><path transform="translate(688 200)" d=""></path><path transform="translate(716 200)" d="M17.7,-4.2L3.6,-64.8Q3.4,-66 3.4,-66.4Q3.4,-68.1 4.4,-69.05Q5.4,-70 7.1,-70Q9.6,-70 10.9,-69Q12.2,-68 12.6,-65.8L23.5,-16.6L36.9,-65.9Q37.9,-70 41.9,-70Q45.7,-70 46.9,-65.9L60.3,-16.6L71.1,-65.8Q71.9,-70 76.2,-70Q78.3,-70 79.4,-69Q80.5,-68 80.5,-66.2Q80.5,-65.7 80.3,-64.7L66.1,-4.2Q65.2,-0 61,-0Q56.7,-0 55.7,-4.1L41.9,-54.8L28,-4.1Q27,-0 22.8,-0Q18.6,-0 17.7,-4.2Z"></path><path transform="translate(796 200)" d="M15.1,-1.85Q9.9,-4.8 7,-10.45Q4.1,-16.1 4.1,-24Q4.1,-31.5 6.95,-37.25Q9.8,-43 14.9,-46.1Q20,-49.2 26.6,-49.2Q32.9,-49.2 37.65,-46.15Q42.4,-43.1 44.9,-38.15Q47.4,-33.2 47.4,-27.9Q47.4,-25.1 46.3,-24.1Q45.2,-23.1 42.7,-23.1L12.9,-23.1Q13,-15.2 16.85,-11Q20.7,-6.8 27.2,-6.8Q34.8,-6.8 38.7,-12.9Q40.9,-15.3 42.6,-15.3Q43.7,-15.3 44.7,-14.6Q46.6,-13.3 46.6,-11.3Q46.6,-9.7 45.3,-8.1Q38.9,1.1 27.1,1.1Q20.3,1.1 15.1,-1.85ZM38.6,-30.3Q37.8,-35.6 34.55,-38.75Q31.3,-41.9 26.5,-41.9Q21.3,-41.9 17.9,-38.95Q14.5,-36 13.4,-30.3L38.6,-30.3Z"></path><path transform="translate(848 200)" d="M21.35,-1.1Q17.5,-3.3 15,-7.5L15,-3.6Q15,-0 10.7,-0Q8.8,-0 7.75,-1.25Q6.7,-2.5 6.7,-4.8L6.7,-67Q6.7,-69.3 7.85,-70.5Q9,-71.7 11.2,-71.7Q15.7,-71.7 15.7,-67L15.7,-41.9Q18.2,-45.4 21.85,-47.3Q25.5,-49.2 29.9,-49.2Q36.5,-49.2 41.65,-46.1Q46.8,-43 49.7,-37.3Q52.6,-31.6 52.6,-24Q52.6,-16.4 49.7,-10.7Q46.8,-5 41.65,-1.95Q36.5,1.1 29.9,1.1Q25.2,1.1 21.35,-1.1ZM19.5,-11.7Q23.4,-7.1 29.6,-7.1Q35.8,-7.1 39.75,-11.7Q43.7,-16.3 43.7,-24Q43.7,-31.8 39.75,-36.4Q35.8,-41 29.6,-41Q23.4,-41 19.5,-36.4Q15.6,-31.8 15.6,-24Q15.6,-16.3 19.5,-11.7Z"></path></svg>