<?xml version="1.0" standalone="no"?><!DOCTYPE svg PUBLIC "-//W3C//DTD SVG 1.1//EN" "http://www.w3.org/Graphics/SVG/1.1/DTD/svg11.dtd"><svg t="1729606063212" class="icon" viewBox="0 0 1024 1024" version="1.1" xmlns="http://www.w3.org/2000/svg" p-id="10051" xmlns:xlink="http://www.w3.org/1999/xlink" width="200" height="200"><path d="M853.2 511.92h63.99v309.285c0 53.011-42.974 95.985-95.985 95.985h-618.57c-53.011 0-95.985-42.974-95.985-95.985v-618.57c0-53.011 42.974-95.985 95.985-95.985H511.92v63.99H202.635c-17.67 0-31.995 14.325-31.995 31.995v618.57c0 17.67 14.325 31.995 31.995 31.995h618.57c17.67 0 31.995-14.325 31.995-31.995V511.92z m-1.294-385.234l45.248 45.248-511.92 511.92-45.248-45.248 511.92-511.92z" fill="#515151" p-id="10052"></path></svg>