<svg t="1727784967260" class="icon" viewBox="0 0 1024 1024" version="1.1" xmlns="http://www.w3.org/2000/svg" p-id="5677" width="200" height="200"><path d="M511.831605 149.953715a361.248658 361.248658 0 0 1 225.197937 78.299825l101.827968-110.536436a513.112125 513.112125 0 0 0-654.051811 0l101.827968 110.536436A361.248658 361.248658 0 0 1 511.831605 149.953715z" p-id="5678"></path><path d="M863.989844 140.786906l-101.369627 110.001706A361.172268 361.172268 0 0 1 873.691384 511.813494a365.068162 365.068162 0 0 1-45.834045 175.697169L625.958375 492.868755l-93.1195-207.781v322.442501l196.55166 193.419667a361.706999 361.706999 0 0 1-435.04147 0l197.01-193.419667V285.087755l-93.1195 207.781-202.204525 195.023858a362.62368 362.62368 0 0 1 65.542683-437.104001L159.673365 140.786906a511.813494 511.813494 0 1 0 704.316479 0z" p-id="5679">
</path></svg>